<svg width="30" height="30" viewBox="0 0 30 30" fill="none" xmlns="http://www.w3.org/2000/svg">
<path d="M16.5 1.5C16.5 0.671573 15.8284 0 15 0C14.1716 0 13.5 0.671573 13.5 1.5V3C13.5 3.82843 14.1716 4.5 15 4.5C15.8284 4.5 16.5 3.82843 16.5 3V1.5Z" fill="white"/>
<path d="M16.5 21C16.5 20.1716 15.8284 19.5 15 19.5C14.1716 19.5 13.5 20.1716 13.5 21V24.8787L13.0607 24.4393C12.4749 23.8536 11.5251 23.8536 10.9393 24.4393C10.3536 25.0251 10.3536 25.9749 10.9393 26.5607L13.9393 29.5607C14.5251 30.1464 15.4749 30.1464 16.0607 29.5607L19.0607 26.5607C19.6464 25.9749 19.6464 25.0251 19.0607 24.4393C18.4749 23.8536 17.5251 23.8536 16.9393 24.4393L16.5 24.8787V21Z" fill="white"/>
<path d="M28.5 16.5C29.3284 16.5 30 15.8284 30 15C30 14.1716 29.3284 13.5 28.5 13.5H27C26.1716 13.5 25.5 14.1716 25.5 15C25.5 15.8284 26.1716 16.5 27 16.5H28.5Z" fill="white"/>
<path d="M4.5 15C4.5 15.8284 3.82843 16.5 3 16.5H1.5C0.671573 16.5 0 15.8284 0 15C0 14.1716 0.671573 13.5 1.5 13.5H3C3.82843 13.5 4.5 14.1716 4.5 15Z" fill="white"/>
<path d="M25.6066 23.4853L24.5459 22.4246C23.9602 21.8388 23.0104 21.8388 22.4246 22.4246C21.8388 23.0104 21.8388 23.9602 22.4246 24.5459L23.4853 25.6066C24.0711 26.1924 25.0208 26.1924 25.6066 25.6066C26.1924 25.0208 26.1924 24.0711 25.6066 23.4853Z" fill="white"/>
<path d="M7.57538 7.57538C6.98959 8.16116 6.03984 8.16116 5.45406 7.57538L4.3934 6.51472C3.80761 5.92893 3.80761 4.97918 4.3934 4.3934C4.97918 3.80761 5.92893 3.80761 6.51472 4.3934L7.57538 5.45406C8.16116 6.03984 8.16116 6.98959 7.57538 7.57538Z" fill="white"/>
<path d="M4.3934 23.4853C3.80761 24.0711 3.80761 25.0208 4.3934 25.6066C4.97919 26.1924 5.92893 26.1924 6.51472 25.6066L7.57538 24.5459C8.16117 23.9602 8.16117 23.0104 7.57538 22.4246C6.98959 21.8388 6.03985 21.8388 5.45406 22.4246L4.3934 23.4853Z" fill="white"/>
<path d="M22.4246 7.57538C21.8388 6.98959 21.8388 6.03985 22.4246 5.45406L23.4853 4.3934C24.0711 3.80761 25.0208 3.80761 25.6066 4.3934C26.1924 4.97919 26.1924 5.92893 25.6066 6.51472L24.5459 7.57538C23.9602 8.16117 23.0104 8.16117 22.4246 7.57538Z" fill="white"/>
<path d="M10.3328 17.4081C9.31182 15.4308 9.63278 12.9426 11.2877 11.2877C13.3379 9.23744 16.662 9.23744 18.7123 11.2877C20.3672 12.9426 20.6882 15.4308 19.6672 17.4081C19.2871 18.1442 19.5757 19.049 20.3118 19.4291C21.0479 19.8092 21.9527 19.5206 22.3328 18.7845C23.9354 15.6808 23.4383 11.7711 20.8336 9.16637C17.6118 5.94454 12.3882 5.94454 9.16636 9.16637C6.56165 11.7711 6.06458 15.6808 7.66717 18.7845C8.04726 19.5206 8.9521 19.8092 9.68818 19.4291C10.4243 19.049 10.7129 18.1442 10.3328 17.4081Z" fill="white"/>
</svg>
