<svg width="390" height="98" viewBox="0 0 390 98" fill="none" xmlns="http://www.w3.org/2000/svg">
<path fill-rule="evenodd" clip-rule="evenodd" d="M339.917 79.5996C327.533 79.5996 316.47 73.9436 309.171 65.0738C306.344 66.0942 303.296 66.6504 300.117 66.6504C297.243 66.6504 294.475 66.1955 291.881 65.3538C287.094 69.932 280.604 72.7441 273.457 72.7441C265.741 72.7441 258.791 69.4663 253.923 64.2271C254.494 66.9124 254.795 69.698 254.795 72.5537C254.795 79.3747 253.079 85.7949 250.055 91.4062L179.935 91.4062C177.739 87.3321 176.234 82.8315 175.573 78.0608C170.247 77.8461 165.495 75.3989 162.229 71.6294C158.226 74.03 153.542 75.4101 148.535 75.4101C146.044 75.4101 143.633 75.0685 141.345 74.4294C134.147 84.695 122.225 91.4062 108.735 91.4062C86.7545 91.4062 68.9355 73.5873 68.9355 51.6064C68.9355 51.3551 68.9379 51.1043 68.9425 50.8541C67.9876 50.6141 67.0619 50.3005 66.1718 49.9197C61.8123 58.7063 52.7491 64.7461 42.2754 64.7461C27.5514 64.7461 15.6152 52.8099 15.6152 38.0859C15.6152 23.3619 27.5514 11.4258 42.2754 11.4258C49.518 11.4258 56.0861 14.3138 60.8908 19.0011C64.2126 15.9526 68.6419 14.0918 73.5059 14.0918C78.3244 14.0918 82.7164 15.918 86.0276 18.916C92.4676 14.4342 100.295 11.8066 108.735 11.8066C117.535 11.8066 125.667 14.6622 132.256 19.4973C133.787 16.9436 136.582 15.2344 139.775 15.2344C143.96 15.2344 147.459 18.168 148.328 22.0906C148.397 22.0901 148.466 22.0898 148.535 22.0898C160.525 22.0898 170.666 30.0047 174.019 40.8946C174.779 40.8004 175.553 40.7519 176.338 40.7519C180.346 40.7519 184.059 42.0154 187.1 44.1657C194.282 37.1076 204.13 32.7539 214.995 32.7539C219.67 32.7539 224.157 33.5599 228.324 35.0406C231.721 30.4203 237.195 27.4219 243.369 27.4219C246.641 27.4219 249.716 28.2639 252.39 29.7432C257.268 23.4642 264.891 19.4238 273.457 19.4238C273.595 19.4238 273.732 19.4249 273.869 19.4269C274.996 15.8911 278.307 13.3301 282.217 13.3301C284.682 13.3301 286.909 14.3483 288.501 15.9871C292.012 14.2847 295.953 13.3301 300.117 13.3301C303.206 13.3301 306.171 13.8552 308.93 14.8211C316.226 5.78176 327.396 -2.28701e-06 339.917 -1.7397e-06C361.898 -7.78892e-07 379.717 17.819 379.717 39.7998C379.717 61.7806 361.898 79.5996 339.917 79.5996Z" fill="#FDFAF3" fill-opacity="0.5"/>
<path fill-rule="evenodd" clip-rule="evenodd" d="M271.934 48.3691C271.934 63.0931 283.87 75.0293 298.594 75.0293C313.318 75.0293 325.254 63.0931 325.254 48.3691C325.254 33.6451 313.318 21.709 298.594 21.709C283.87 21.709 271.934 33.6451 271.934 48.3691ZM83.7891 54.4629C83.7891 69.1869 95.7252 81.123 110.449 81.123C117.415 81.123 123.756 78.4519 128.505 74.0781C132.288 84.1996 142.045 91.4062 153.486 91.4062C168.21 91.4062 180.146 79.4701 180.146 64.7461C180.146 50.0221 168.21 38.0859 153.486 38.0859C146.521 38.0859 140.18 40.7571 135.43 45.1309C131.648 35.0094 121.89 27.8027 110.449 27.8027C95.7252 27.8027 83.7891 39.7389 83.7891 54.4629ZM225.469 56.3672C225.469 66.674 233.824 75.0293 244.131 75.0293C254.438 75.0293 262.793 66.674 262.793 56.3672C262.793 46.0604 254.438 37.7051 244.131 37.7051C233.824 37.7051 225.469 46.0604 225.469 56.3672Z" fill="#FDFAF3" fill-opacity="0.5"/>
<path fill-rule="evenodd" clip-rule="evenodd" d="M389.81 5.71289C389.873 5.71289 389.937 5.71304 390 5.71334L390 97.5L257.08 97.5L197.137 97.5L120.119 97.5L82.2656 97.5L-4.01214e-06 97.5L-7.02854e-08 7.32082C3.56305 6.27432 7.33365 5.71287 11.2354 5.71287C25.0367 5.71287 37.1972 12.7377 44.3365 23.4067C44.9012 23.2924 45.4856 23.2324 46.084 23.2324C50.1987 23.2324 53.6508 26.0694 54.5909 29.8941C64.5479 31.0756 72.8223 37.7447 76.3052 46.7924C77.7326 43.8911 80.7181 41.8945 84.1699 41.8945C88.0848 41.8945 91.3999 44.4627 92.5223 48.0063C96.9826 44.6473 102.531 42.6562 108.545 42.6562C112.534 42.6562 116.318 43.5322 119.716 45.1023C124.527 43.0378 129.828 41.8945 135.396 41.8945C149.365 41.8945 161.653 49.0911 168.755 59.9791C169.615 59.8577 170.493 59.7949 171.387 59.7949C174.959 59.7949 178.297 60.7986 181.133 62.5393C184.549 58.7496 189.496 56.3672 195 56.3672C201.755 56.3672 207.671 59.9557 210.947 65.3303C212.278 65.1958 213.629 65.1269 214.995 65.1269C217.005 65.1269 218.98 65.2759 220.909 65.5633C220.902 65.4188 220.898 65.2733 220.898 65.1269C220.898 60.2891 224.82 56.3672 229.658 56.3672C231.522 56.3672 233.25 56.9494 234.67 57.9419C239.511 51.2213 247.404 46.8457 256.318 46.8457C256.92 46.8457 257.517 46.8656 258.109 46.9049C260.258 38.9709 267.509 33.1348 276.123 33.1348C280.585 33.1348 284.681 34.7004 287.891 37.3123C293.043 34.8773 298.802 33.5156 304.878 33.5156C309.461 33.5156 313.864 34.2903 317.961 35.716C318.995 32.0295 322.38 29.3262 326.396 29.3262C329.501 29.3262 332.228 30.9409 333.784 33.3762C338.638 28.2991 345.478 25.1367 353.057 25.1367C353.896 25.1367 354.726 25.1755 355.546 25.2514C362.477 13.5548 375.228 5.71289 389.81 5.71289Z" fill="#FDFAF3"/>
</svg>
