<svg width="30" height="30" viewBox="0 0 30 30" fill="none" xmlns="http://www.w3.org/2000/svg">
<path d="M15 0C15.8284 0 16.5 0.671573 16.5 1.5V3C16.5 3.82843 15.8284 4.5 15 4.5C14.1716 4.5 13.5 3.82843 13.5 3V1.5C13.5 0.671573 14.1716 0 15 0Z" fill="#FDFAF3"/>
<path d="M15 25.5C15.8284 25.5 16.5 26.1716 16.5 27V28.5C16.5 29.3284 15.8284 30 15 30C14.1716 30 13.5 29.3284 13.5 28.5V27C13.5 26.1716 14.1716 25.5 15 25.5Z" fill="#FDFAF3"/>
<path d="M28.5 16.5C29.3284 16.5 30 15.8284 30 15C30 14.1716 29.3284 13.5 28.5 13.5H27C26.1716 13.5 25.5 14.1716 25.5 15C25.5 15.8284 26.1716 16.5 27 16.5H28.5Z" fill="#FDFAF3"/>
<path d="M4.5 15C4.5 15.8284 3.82843 16.5 3 16.5H1.5C0.671573 16.5 0 15.8284 0 15C0 14.1716 0.671573 13.5 1.5 13.5H3C3.82843 13.5 4.5 14.1716 4.5 15Z" fill="#FDFAF3"/>
<path d="M22.4246 24.5459L23.4853 25.6066C24.0711 26.1924 25.0208 26.1924 25.6066 25.6066C26.1924 25.0208 26.1924 24.0711 25.6066 23.4853L24.5459 22.4246C23.9602 21.8388 23.0104 21.8388 22.4246 22.4246C21.8388 23.0104 21.8388 23.9602 22.4246 24.5459Z" fill="#FDFAF3"/>
<path d="M7.57538 7.57538C6.98959 8.16116 6.03984 8.16116 5.45406 7.57538L4.3934 6.51472C3.80761 5.92893 3.80761 4.97918 4.3934 4.3934C4.97918 3.80761 5.92893 3.80761 6.51472 4.3934L7.57538 5.45406C8.16116 6.03984 8.16116 6.98959 7.57538 7.57538Z" fill="#FDFAF3"/>
<path d="M4.3934 23.4853C3.80761 24.0711 3.80761 25.0208 4.3934 25.6066C4.97919 26.1924 5.92893 26.1924 6.51472 25.6066L7.57538 24.5459C8.16117 23.9602 8.16117 23.0104 7.57538 22.4246C6.98959 21.8388 6.03985 21.8388 5.45406 22.4246L4.3934 23.4853Z" fill="#FDFAF3"/>
<path d="M22.4246 7.57538C21.8388 6.98959 21.8388 6.03985 22.4246 5.45406L23.4853 4.3934C24.0711 3.80761 25.0208 3.80761 25.6066 4.3934C26.1924 4.97919 26.1924 5.92893 25.6066 6.51472L24.5459 7.57538C23.9602 8.16117 23.0104 8.16117 22.4246 7.57538Z" fill="#FDFAF3"/>
<path fill-rule="evenodd" clip-rule="evenodd" d="M15 6.75C10.4437 6.75 6.75 10.4437 6.75 15C6.75 19.5563 10.4437 23.25 15 23.25C19.5563 23.25 23.25 19.5563 23.25 15C23.25 10.4437 19.5563 6.75 15 6.75ZM9.75 15C9.75 12.1005 12.1005 9.75 15 9.75C17.8995 9.75 20.25 12.1005 20.25 15C20.25 17.8995 17.8995 20.25 15 20.25C12.1005 20.25 9.75 17.8995 9.75 15Z" fill="#FDFAF3"/>
</svg>
