<svg width="25" height="25" viewBox="0 0 25 25" fill="none" xmlns="http://www.w3.org/2000/svg">
<path fill-rule="evenodd" clip-rule="evenodd" d="M11.8815 0.654199C12.2363 1.14694 12.2759 1.79984 11.9834 2.33189C11.3668 3.45321 11.0155 4.74137 11.0155 6.1163C11.0155 10.4618 14.5382 13.9845 18.8837 13.9845C20.2586 13.9845 21.5468 13.6332 22.6681 13.0166C23.2002 12.7241 23.8531 12.7637 24.3458 13.1185C24.8385 13.4733 25.0832 14.0799 24.9745 14.6773C23.9063 20.5485 18.7692 25 12.5891 25C5.63635 25 0 19.3637 0 12.4109C0 6.23081 4.45154 1.09374 10.3227 0.0254714C10.9201 -0.0832212 11.5267 0.161455 11.8815 0.654199ZM8.04693 4.13089C5.12652 5.73663 3.14728 8.84358 3.14728 12.4109C3.14728 17.6255 7.37455 21.8527 12.5891 21.8527C16.1564 21.8527 19.2634 19.8735 20.8691 16.9531C20.2247 17.0705 19.5611 17.1318 18.8837 17.1318C12.8 17.1318 7.86821 12.2 7.86821 6.1163C7.86821 5.43895 7.92951 4.77532 8.04693 4.13089Z" fill="white"/>
</svg>
