<svg width="188" height="41" viewBox="0 0 188 41" fill="none" xmlns="http://www.w3.org/2000/svg">
<path d="M86.3564 3.77075L82.5327 0L78.7091 3.77075L82.5327 7.54151L86.3564 3.77075Z" fill="#F7F5ED"/>
<path fill-rule="evenodd" clip-rule="evenodd" d="M11.1123 29.7265V34.8279C11.1123 35.5837 10.9845 36.0875 10.7291 36.3394C10.4736 36.5494 9.96272 36.6543 9.19636 36.6543H7.66363C6.89727 36.6543 6.38636 36.5494 6.13091 36.3394C5.87545 36.0875 5.74772 35.5837 5.74772 34.8279V32.4346H0.127727V35.4577C0.127727 39.1526 2.1075 41 6.06704 41H10.7929C14.7525 41 16.7323 39.1526 16.7323 35.4577V29.1596C16.7323 25.4228 14.7738 23.5544 10.8568 23.5544H7.53591C6.76954 23.5544 6.25863 23.4494 6.00318 23.2395C5.74772 22.9875 5.62 22.4837 5.62 21.7279V16.5885C5.62 15.8327 5.74772 15.3499 6.00318 15.1399C6.25863 14.888 6.76954 14.7621 7.53591 14.7621H21.3371C21.2954 15.1113 21.2746 15.4808 21.2746 15.8707V35.4577C21.2746 39.1526 23.1905 41 27.0223 41H29.3214C31.4076 41 32.7274 40.1813 33.2809 38.5438V41H50.4188V17.0673C50.4188 16.2696 50.5678 15.7028 50.8659 15.3669C51.2065 15.031 51.76 14.863 52.5263 14.863H54.7616C55.5279 14.863 56.0388 14.989 56.2943 15.2409C56.5497 15.4508 56.6775 15.9337 56.6775 16.6895V41H62.4252V17.0673C62.4252 15.5978 63.1064 14.863 64.4688 14.863H66.7679C67.5343 14.863 68.0239 14.989 68.2368 15.2409C68.4922 15.4508 68.62 15.9337 68.62 16.6895V41H101.1C105.06 41 107.039 39.1526 107.039 35.4577V29.1596C107.039 25.4228 105.081 23.5544 101.164 23.5544H97.843C97.0767 23.5544 96.5658 23.4494 96.3103 23.2395C96.0549 22.9875 95.9271 22.4837 95.9271 21.7279V16.4375C95.9271 15.6818 96.0549 15.1989 96.3103 14.989C96.5658 14.7371 97.0767 14.6111 97.843 14.6111H99.3758C100.142 14.6111 100.653 14.7371 100.908 14.989C101.164 15.1989 101.292 15.6818 101.292 16.4375V18.8308H106.912V15.8707C106.912 12.1339 104.911 10.2654 100.908 10.2654H96.2465C92.2869 10.2654 90.3071 12.1339 90.3071 15.8707V22.3577C90.3071 26.0526 92.2869 27.9 96.2465 27.9H99.5035C100.27 27.9 100.781 28.026 101.036 28.2779C101.292 28.4878 101.419 28.9707 101.419 29.7265V34.8279C101.419 35.5837 101.292 36.0875 101.036 36.3394C100.781 36.5494 100.27 36.6543 99.5035 36.6543H85.4066V10.2654H79.6589V36.6543H74.3677V15.8707C74.3677 12.1339 72.4518 10.2654 68.62 10.2654H66.3847C63.9153 10.2654 62.4252 11.2102 61.9143 13.0996C61.1053 11.2102 59.3384 10.2654 56.6136 10.2654H54.3784C52.2922 10.2654 50.9723 11.0842 50.4188 12.7217V10.2654H44.6711V36.6543H39.0286V10.2654H33.2809V12.7217C32.7274 11.0842 31.4076 10.2654 29.3214 10.2654H5.93932C1.97977 10.2654 0 12.1339 0 15.8707V22.3577C0 26.0526 1.97977 27.9 5.93932 27.9H9.19636C9.96272 27.9 10.4736 28.026 10.7291 28.2779C10.9845 28.4878 11.1123 28.9707 11.1123 29.7265ZM27.4055 36.0875C27.6609 36.2974 28.1718 36.4024 28.9382 36.4024H31.1734C31.9398 36.4024 32.472 36.2345 32.77 35.8986C33.1106 35.5627 33.2809 34.9958 33.2809 34.1981V17.0673C33.2809 16.2696 33.1106 15.7028 32.77 15.3669C32.472 15.031 31.9398 14.863 31.1734 14.863H28.9382C28.1718 14.863 27.6609 14.989 27.4055 15.2409C27.15 15.4508 27.0223 15.9337 27.0223 16.6895V34.576C27.0223 35.3317 27.15 35.8356 27.4055 36.0875Z" fill="#F7F5ED"/>
<path fill-rule="evenodd" clip-rule="evenodd" d="M123.588 10.2654V12.7217C123.035 11.0842 121.715 10.2654 119.629 10.2654H117.329C113.498 10.2654 111.582 12.1339 111.582 15.8707V35.4577C111.582 39.1526 113.498 41 117.329 41H119.629C121.715 41 123.035 40.1813 123.588 38.5438V41H129.336V14.7621H134.914V35.4577C134.914 39.1526 136.83 41 140.662 41H142.961C145.047 41 146.367 40.1813 146.921 38.5438V41H164.051V17.0673C164.051 16.2696 164.2 15.7028 164.498 15.3669C164.839 15.031 165.392 14.863 166.159 14.863H168.394C169.16 14.863 169.671 14.989 169.927 15.2409C170.182 15.4508 170.31 15.9337 170.31 16.6895V41H176.057V17.0673C176.057 15.5978 176.739 14.863 178.101 14.863H180.4C181.167 14.863 181.656 14.989 181.869 15.2409C182.125 15.4508 182.252 15.9337 182.252 16.6895V41H188V15.8707C188 12.1339 186.084 10.2654 182.252 10.2654H180.017C177.548 10.2654 176.057 11.2102 175.547 13.0996C174.738 11.2102 172.971 10.2654 170.246 10.2654H168.011C165.924 10.2654 164.605 11.0842 164.051 12.7217V10.2654H158.303V36.6543H152.668V10.2654H146.921V34.1981C146.921 34.9958 146.75 35.5627 146.41 35.8986C146.112 36.2345 145.58 36.4024 144.813 36.4024H142.578C141.812 36.4024 141.301 36.2974 141.045 36.0875C140.79 35.8356 140.662 35.3317 140.662 34.576V10.2654H123.588ZM119.245 36.4024H121.481C122.247 36.4024 122.779 36.2345 123.077 35.8986C123.418 35.5627 123.588 34.9958 123.588 34.1981V17.0673C123.588 16.2696 123.418 15.7028 123.077 15.3669C122.779 15.031 122.247 14.863 121.481 14.863H119.245C118.479 14.863 117.968 14.989 117.713 15.2409C117.457 15.4508 117.329 15.9337 117.329 16.6895V34.576C117.329 35.3317 117.457 35.8356 117.713 36.0875C117.968 36.2974 118.479 36.4024 119.245 36.4024Z" fill="#F7F5ED"/>
</svg>
