<svg width="25" height="25" viewBox="0 0 25 25" fill="none" xmlns="http://www.w3.org/2000/svg">
<path d="M12.1389 2.31538C12.4294 1.78709 12.39 1.13882 12.0377 0.649567C11.6854 0.160312 11.0831 -0.082632 10.49 0.0252911C5.31168 0.967495 1.38545 5.49804 1.38545 10.9489C1.38545 13.7235 2.40525 16.264 4.08842 18.2098C4.65297 18.8624 5.63971 18.9338 6.29236 18.3693C6.94501 17.8047 7.01642 16.818 6.45187 16.1653C5.24122 14.7658 4.51045 12.9446 4.51045 10.9489C4.51045 8.08343 6.02188 5.56927 8.29114 4.16237C8.23122 4.59896 8.20028 5.04453 8.20028 5.497C8.20028 10.8764 12.5612 15.2373 17.9406 15.2373C18.393 15.2373 18.8385 15.2064 19.275 15.1465C19.0521 15.5059 18.8013 15.8465 18.5255 16.1653C17.961 16.818 18.0324 17.8047 18.6851 18.3693C19.3377 18.9338 20.3244 18.8624 20.889 18.2098C22.1574 16.7434 23.05 14.9388 23.4123 12.9476C23.5202 12.3544 23.2773 11.7521 22.788 11.3998C22.2987 11.0476 21.6505 11.0082 21.1222 11.2987C20.1797 11.8169 19.097 12.1123 17.9406 12.1123C14.287 12.1123 11.3253 9.15052 11.3253 5.497C11.3253 4.3406 11.6207 3.25787 12.1389 2.31538Z" fill="white"/>
<path d="M23.4375 25.0001C24.3004 25.0001 25 24.3005 25 23.4376C25 22.5746 24.3004 21.8751 23.4375 21.8751H1.5625C0.699554 21.8751 0 22.5746 0 23.4376C0 24.3005 0.699554 25.0001 1.5625 25.0001L23.4375 25.0001Z" fill="white"/>
</svg>
