<svg width="30" height="26" viewBox="0 0 30 26" fill="none" xmlns="http://www.w3.org/2000/svg">
<path d="M15 0C15.8284 0 16.5 0.671573 16.5 1.5V3C16.5 3.82843 15.8284 4.5 15 4.5C14.1716 4.5 13.5 3.82843 13.5 3V1.5C13.5 0.671573 14.1716 0 15 0Z" fill="#FBF8F6"/>
<path d="M30 15C30 15.8284 29.3284 16.5 28.5 16.5H27C26.1716 16.5 25.5 15.8284 25.5 15C25.5 14.1716 26.1716 13.5 27 13.5H28.5C29.3284 13.5 30 14.1716 30 15Z" fill="#FBF8F6"/>
<path d="M3 16.5C3.82843 16.5 4.5 15.8284 4.5 15C4.5 14.1716 3.82843 13.5 3 13.5H1.5C0.671573 13.5 0 14.1716 0 15C0 15.8284 0.671573 16.5 1.5 16.5H3Z" fill="#FBF8F6"/>
<path d="M7.57538 7.57538C6.98959 8.16116 6.03985 8.16116 5.45406 7.57538L4.3934 6.51472C3.80761 5.92893 3.80761 4.97918 4.3934 4.3934C4.97919 3.80761 5.92893 3.80761 6.51472 4.3934L7.57538 5.45406C8.16117 6.03984 8.16117 6.98959 7.57538 7.57538Z" fill="#FBF8F6"/>
<path d="M23.4853 4.3934L22.4246 5.45406C21.8388 6.03985 21.8388 6.98959 22.4246 7.57538C23.0104 8.16117 23.9602 8.16116 24.5459 7.57538L25.6066 6.51472C26.1924 5.92893 26.1924 4.97918 25.6066 4.3934C25.0208 3.80761 24.0711 3.80761 23.4853 4.3934Z" fill="#FBF8F6"/>
<path d="M27 24C27 24.8284 26.3284 25.5 25.5 25.5H4.5C3.67157 25.5 3 24.8284 3 24C3 23.1716 3.67157 22.5 4.5 22.5H25.5C26.3284 22.5 27 23.1716 27 24Z" fill="#FBF8F6"/>
<path d="M10.3328 17.4081C9.31183 15.4308 9.63278 12.9426 11.2877 11.2877C13.3379 9.23743 16.6621 9.23743 18.7123 11.2877C20.3672 12.9426 20.6882 15.4308 19.6672 17.4081C19.2871 18.1441 19.5757 19.049 20.3118 19.4291C21.0479 19.8092 21.9527 19.5206 22.3328 18.7845C23.9354 15.6808 23.4383 11.7711 20.8336 9.16637C17.6118 5.94454 12.3882 5.94454 9.16637 9.16637C6.56166 11.7711 6.06459 15.6808 7.66718 18.7845C8.04727 19.5206 8.9521 19.8092 9.68819 19.4291C10.4243 19.049 10.7129 18.1441 10.3328 17.4081Z" fill="#FBF8F6"/>
</svg>
